<svg xmlns="http://www.w3.org/2000/svg" xmlns:xlink="http://www.w3.org/1999/xlink" width="500" zoomAndPan="magnify" viewBox="0 0 375 374.999991" height="500" preserveAspectRatio="xMidYMid meet" version="1.0"><defs><g/><clipPath id="c30ec42a8c"><path d="M 100.171875 130.1875 L 127 130.1875 L 127 137.429688 L 100.171875 137.429688 Z M 100.171875 130.1875 " clip-rule="nonzero"/></clipPath><clipPath id="1bc438d095"><path d="M 119.957031 130.1875 C 118.660156 130.1875 117.363281 130.21875 116.070312 130.21875 L 103.828125 130.25 C 101.742188 130.292969 100.183594 131.933594 100.171875 133.804688 L 100.171875 133.851562 C 100.171875 133.902344 100.171875 133.953125 100.175781 134.003906 C 100.285156 136.066406 101.644531 137.347656 103.902344 137.378906 L 113.128906 137.390625 C 114.945312 137.390625 116.757812 137.425781 118.570312 137.425781 C 120.019531 137.425781 121.472656 137.402344 122.917969 137.324219 C 123.886719 137.273438 125.121094 136.628906 125.695312 135.855469 C 127.441406 133.496094 125.746094 130.425781 122.660156 130.253906 C 121.761719 130.203125 120.863281 130.1875 119.957031 130.1875 Z M 119.957031 130.1875 " clip-rule="nonzero"/></clipPath><clipPath id="6d9586eba5"><path d="M 158.40625 221.089844 L 211.457031 221.089844 L 211.457031 229.808594 L 158.40625 229.808594 Z M 158.40625 221.089844 " clip-rule="nonzero"/></clipPath><clipPath id="0af0b42697"><path d="M 185.121094 221.09375 L 206.601562 221.097656 C 209.429688 221.101562 211.230469 222.726562 211.34375 225.3125 C 211.449219 227.605469 209.359375 229.636719 206.679688 229.765625 L 202.15625 229.796875 C 189.65625 229.792969 177.160156 229.792969 164.664062 229.769531 C 163.730469 229.769531 162.773438 229.707031 161.875 229.484375 C 159.785156 228.964844 158.425781 227.011719 158.628906 225.019531 C 158.871094 222.679688 160.488281 221.125 162.890625 221.117188 L 185.121094 221.101562 Z M 185.121094 221.09375 " clip-rule="nonzero"/></clipPath><clipPath id="3e8fbd0687"><path d="M 170.109375 236.21875 L 199.777344 236.21875 L 199.777344 244.867188 L 170.109375 244.867188 Z M 170.109375 236.21875 " clip-rule="nonzero"/></clipPath><clipPath id="d278958282"><path d="M 185.175781 236.230469 L 195.347656 236.238281 C 198.042969 236.265625 199.753906 237.953125 199.761719 240.511719 C 199.769531 243.152344 198.199219 244.828125 195.421875 244.855469 L 174.703125 244.855469 C 171.769531 244.824219 170.140625 243.128906 170.175781 240.472656 C 170.214844 237.769531 171.824219 236.269531 174.816406 236.238281 L 185.175781 236.230469 " clip-rule="nonzero"/></clipPath><clipPath id="217deeb4b5"><path d="M 177 93 L 241.917969 93 L 241.917969 206 L 177 206 Z M 177 93 " clip-rule="nonzero"/></clipPath><clipPath id="8f6ac0b7f4"><path d="M 215.535156 152.207031 C 215.507812 134.027344 203.800781 120.980469 188.511719 119.1875 C 184.257812 118.691406 181.355469 115.847656 181.269531 112.089844 C 181.179688 108.054688 183.660156 105.113281 188.113281 104.515625 C 192.386719 103.945312 195.289062 101.824219 197.023438 97.933594 C 197.375 97.132812 197.800781 96.351562 198.300781 95.636719 C 199.886719 93.378906 201.980469 92.769531 204.519531 93.796875 C 206.4375 94.574219 208.367188 95.320312 210.230469 96.214844 C 213.039062 97.5625 213.65625 99.316406 213 102.375 C 212.429688 105.023438 212.175781 107.75 211.792969 110.4375 L 211.796875 110.832031 C 214.589844 116.117188 218.203125 120.410156 223.867188 122.242188 C 225.484375 122.769531 227.542969 122.023438 229.378906 121.742188 C 230.425781 121.578125 231.421875 121.128906 232.453125 120.894531 C 235.023438 120.308594 236.710938 121.042969 237.875 123.4375 C 238.914062 125.574219 239.832031 127.777344 240.679688 130 C 241.523438 132.203125 240.929688 134.050781 238.96875 135.421875 C 237.792969 136.25 236.5 136.914062 235.25 137.632812 C 232.003906 139.484375 230.078125 142.117188 230.160156 146.003906 C 230.21875 148.703125 230.105469 151.414062 230.28125 154.109375 C 230.464844 156.878906 232.101562 158.863281 234.367188 160.320312 L 238.445312 162.664062 C 241.101562 164.300781 241.769531 166.128906 240.707031 169.050781 L 238.425781 174.613281 C 237.085938 177.519531 235.097656 178.355469 231.96875 177.566406 C 229.972656 177.058594 227.96875 176.523438 225.933594 176.273438 C 223.628906 175.992188 221.613281 176.925781 219.953125 178.515625 C 218.09375 180.300781 216.238281 182.09375 214.492188 183.988281 C 212.101562 186.578125 211.269531 189.570312 212.480469 193.015625 L 213.511719 196.625 C 214.207031 199.449219 213.460938 201.257812 210.863281 202.542969 C 208.792969 203.566406 206.648438 204.480469 204.472656 205.25 C 202.046875 206.109375 200.210938 205.402344 198.792969 203.226562 L 196.304688 199.019531 C 194.464844 196.191406 191.882812 194.710938 188.433594 194.699219 C 186.511719 194.695312 184.457031 194.789062 182.699219 194.167969 C 178.835938 192.808594 177.074219 189.296875 177.863281 185.46875 C 178.527344 182.261719 181.636719 179.769531 185.402344 179.886719 C 192.046875 180.101562 197.910156 178.003906 203.113281 174.101562 C 211.335938 167.9375 215.378906 159.570312 215.519531 152.214844 " clip-rule="nonzero"/></clipPath><clipPath id="3aa0709b7b"><path d="M 136 89 L 189 89 L 189 213.886719 L 136 213.886719 Z M 136 89 " clip-rule="nonzero"/></clipPath><clipPath id="21e8957b0c"><path d="M 175.949219 213.300781 C 172.75 213.300781 169.519531 213.5625 166.355469 213.238281 C 161.527344 212.742188 157.734375 209.164062 157.230469 204.355469 C 156.269531 195.238281 153.109375 186.8125 149.644531 178.484375 C 147.023438 172.1875 144.125 165.992188 141.078125 159.886719 C 136.921875 151.5625 135.496094 142.859375 136.246094 133.625 C 137.929688 112.8125 153.738281 94.992188 173.785156 90.402344 C 177.003906 89.664062 180.359375 89.453125 183.664062 89.175781 C 185.597656 89.011719 187.261719 89.757812 188.160156 91.636719 C 188.933594 93.246094 188.894531 94.984375 187.648438 96.183594 C 186.753906 97.042969 185.304688 97.703125 184.0625 97.769531 C 175.550781 98.195312 167.808594 100.691406 161.027344 105.910156 C 153.082031 112.027344 147.761719 119.898438 145.601562 129.730469 C 143.609375 138.792969 144.527344 147.566406 148.863281 155.871094 C 155.144531 167.894531 160.410156 180.332031 164.082031 193.410156 C 164.859375 196.171875 165.257812 199.050781 165.683594 201.894531 C 166.015625 204.117188 166.644531 204.855469 168.960938 204.871094 L 183.855469 204.894531 C 186.730469 204.90625 188.660156 206.683594 188.648438 209.253906 C 188.636719 211.652344 186.625 213.492188 183.871094 213.539062 L 175.949219 213.550781 Z M 175.949219 213.300781 " clip-rule="nonzero"/></clipPath><clipPath id="dd557719a9"><path d="M 163 126.074219 L 208.753906 126.074219 L 208.753906 172.808594 L 163 172.808594 Z M 163 126.074219 " clip-rule="nonzero"/></clipPath><clipPath id="0a97b48e89"><path d="M 197.878906 149.359375 C 197.90625 142.609375 192.304688 137.003906 185.574219 137.054688 C 178.835938 137.109375 173.242188 142.691406 173.277344 149.4375 C 173.316406 155.875 178.203125 161.910156 185.757812 161.792969 C 193.925781 161.660156 198.191406 155.019531 197.878906 149.359375 M 202.632812 138.488281 C 202.714844 138.472656 203.136719 138.34375 203.566406 138.316406 C 204.496094 138.253906 205.992188 137.886719 206.253906 138.289062 C 207.105469 139.597656 207.648438 141.171875 207.976562 142.714844 C 208.0625 143.128906 207.039062 143.90625 206.402344 144.332031 C 203.882812 146.007812 202.75 149.269531 204.09375 151.992188 C 204.574219 152.960938 205.652344 153.714844 206.59375 154.359375 C 208.324219 155.542969 208.53125 156.203125 207.582031 158.511719 C 206.941406 160.082031 206.234375 161.394531 204.128906 160.515625 C 200.207031 158.878906 194.980469 164.207031 196.941406 168.027344 C 197.640625 169.382812 197.035156 170.355469 195.613281 171 C 192.253906 172.515625 192.273438 172.558594 190.289062 169.480469 C 188.351562 166.472656 182.941406 166.671875 181.003906 169.828125 C 179.378906 172.472656 179.230469 172.519531 176.375 171.332031 C 174.160156 170.40625 173.863281 169.980469 174.617188 167.605469 C 175.4375 165.015625 174.070312 163.46875 172.410156 161.890625 C 170.902344 160.453125 169.320312 159.824219 167.308594 160.753906 C 165.875 161.414062 164.804688 161.054688 164.085938 159.542969 C 162.78125 156.800781 162.8125 155.859375 164.445312 154.777344 C 167.390625 152.816406 168.058594 151.054688 167.398438 147.664062 C 167.066406 145.949219 165.929688 145.152344 164.550781 144.433594 C 162.871094 143.554688 162.699219 142.761719 163.570312 140.511719 C 164.476562 138.167969 165.011719 137.816406 166.933594 138.296875 C 170.152344 139.101562 173.875 137.054688 174.671875 133.882812 C 174.878906 133.058594 174.574219 132.027344 174.289062 131.164062 C 173.738281 129.488281 174.050781 128.347656 175.847656 127.800781 L 177.402344 127.128906 C 178.65625 126.53125 179.496094 126.90625 180.214844 128.085938 C 182.179688 131.324219 184.023438 132.203125 187.5625 131.1875 C 188.65625 130.875 189.660156 129.699219 190.363281 128.6875 C 191.832031 126.578125 192.316406 126.355469 194.835938 127.5 C 197.015625 128.492188 197.328125 129.191406 196.609375 131.453125 C 195.65625 134.472656 198.96875 138.597656 202.621094 138.484375 " clip-rule="nonzero"/></clipPath><clipPath id="ac70bd4d8e"><path d="M 123.199219 72.179688 L 144.679688 72.179688 L 144.679688 94 L 123.199219 94 Z M 123.199219 72.179688 " clip-rule="nonzero"/></clipPath><clipPath id="16bcd0e1b4"><path d="M 144.648438 89.570312 C 144.597656 92.46875 141.460938 94.304688 139.417969 93.113281 L 137.929688 91.972656 C 133.730469 87.824219 129.523438 83.683594 125.382812 79.476562 C 123.25 77.304688 123.558594 74.6875 125.945312 73.316406 C 127.414062 72.46875 128.792969 72.699219 129.917969 73.804688 L 143.625 87.535156 C 144.230469 88.15625 144.445312 89.160156 144.644531 89.574219 " clip-rule="nonzero"/></clipPath><clipPath id="79928649ae"><path d="M 225 72.179688 L 246 72.179688 L 246 94.039062 L 225 94.039062 Z M 225 72.179688 " clip-rule="nonzero"/></clipPath><clipPath id="475fe93b98"><path d="M 228.628906 94.011719 C 227.523438 92.976562 226.183594 92.242188 225.71875 91.132812 C 225.328125 90.203125 225.566406 88.507812 226.21875 87.734375 C 228.320312 85.246094 230.734375 83.019531 233.042969 80.707031 L 239.480469 74.34375 C 241.546875 72.40625 243.316406 72.351562 244.90625 73.996094 C 246.429688 75.578125 246.34375 77.65625 244.515625 79.511719 L 232.21875 91.753906 C 231.320312 92.625 230.058594 93.128906 228.628906 94.011719 " clip-rule="nonzero"/></clipPath><clipPath id="5751a85c44"><path d="M 243.425781 130 L 270 130 L 270 137.757812 L 243.425781 137.757812 Z M 243.425781 130 " clip-rule="nonzero"/></clipPath><clipPath id="9795718875"><path d="M 250.992188 130.210938 C 250.4375 130.210938 249.886719 130.210938 249.332031 130.210938 L 246.890625 130.265625 C 244.894531 130.515625 243.46875 132.128906 243.558594 133.953125 C 243.664062 135.996094 245.066406 137.363281 247.210938 137.386719 L 256.4375 137.398438 L 266.226562 137.386719 C 268.207031 137.359375 269.578125 136.078125 269.785156 134.21875 C 269.972656 132.542969 268.664062 130.804688 266.828125 130.40625 C 266.097656 130.246094 265.332031 130.230469 264.585938 130.230469 C 260.058594 130.214844 255.523438 130.210938 250.988281 130.210938 Z M 250.992188 130.210938 " clip-rule="nonzero"/></clipPath><clipPath id="81523b6d51"><path d="M 181.238281 52.578125 L 188.777344 52.578125 L 188.777344 78.585938 L 181.238281 78.585938 Z M 181.238281 52.578125 " clip-rule="nonzero"/></clipPath><clipPath id="e4b3eecc13"><path d="M 185.195312 52.582031 C 184.320312 52.585938 183.367188 52.835938 182.738281 53.261719 C 181.9375 53.800781 181.40625 55.269531 181.378906 56.347656 C 181.246094 62.363281 181.292969 68.386719 181.289062 74.40625 L 181.433594 75.328125 C 181.886719 77.398438 183.128906 78.527344 184.929688 78.527344 C 185.070312 78.527344 185.210938 78.519531 185.359375 78.507812 C 187.207031 78.335938 188.421875 76.878906 188.441406 74.71875 L 188.449219 65.878906 L 188.472656 65.878906 C 188.472656 62.429688 188.621094 58.976562 188.375 55.542969 C 188.304688 54.53125 187.289062 53.113281 186.375 52.769531 C 186.039062 52.640625 185.632812 52.585938 185.214844 52.582031 Z M 185.195312 52.582031 " clip-rule="nonzero"/></clipPath></defs><g clip-path="url(#c30ec42a8c)"><g clip-path="url(#1bc438d095)"><path fill="#121514" d="M 100.171875 130.1875 L 126.386719 130.1875 L 126.386719 137.429688 L 100.171875 137.429688 Z M 100.171875 130.1875 " fill-opacity="1" fill-rule="nonzero"/></g></g><g clip-path="url(#6d9586eba5)"><g clip-path="url(#0af0b42697)"><path fill="#121514" d="M 158.609375 221.089844 L 211.351562 221.089844 L 211.351562 229.808594 L 158.609375 229.808594 Z M 158.609375 221.089844 " fill-opacity="1" fill-rule="nonzero"/></g></g><g clip-path="url(#3e8fbd0687)"><g clip-path="url(#d278958282)"><path fill="#121514" d="M 170.175781 236.21875 L 199.777344 236.21875 L 199.777344 244.902344 L 170.175781 244.902344 Z M 170.175781 236.21875 " fill-opacity="1" fill-rule="nonzero"/></g></g><g clip-path="url(#217deeb4b5)"><g clip-path="url(#8f6ac0b7f4)"><path fill="#4a6cf7" d="M 122.066406 50.695312 L 271.691406 50.695312 L 271.691406 215.394531 L 122.066406 215.394531 Z M 122.066406 50.695312 " fill-opacity="1" fill-rule="nonzero"/></g></g><g clip-path="url(#3aa0709b7b)"><g clip-path="url(#21e8957b0c)"><path fill="#4a6cf7" d="M 122.066406 50.695312 L 271.691406 50.695312 L 271.691406 215.394531 L 122.066406 215.394531 Z M 122.066406 50.695312 " fill-opacity="1" fill-rule="nonzero"/></g></g><g clip-path="url(#dd557719a9)"><g clip-path="url(#0a97b48e89)"><path fill="#121514" d="M 122.066406 50.695312 L 271.691406 50.695312 L 271.691406 215.394531 L 122.066406 215.394531 Z M 122.066406 50.695312 " fill-opacity="1" fill-rule="nonzero"/></g></g><g clip-path="url(#ac70bd4d8e)"><g clip-path="url(#16bcd0e1b4)"><path fill="#121514" d="M 122.066406 50.695312 L 271.691406 50.695312 L 271.691406 215.394531 L 122.066406 215.394531 Z M 122.066406 50.695312 " fill-opacity="1" fill-rule="nonzero"/></g></g><g clip-path="url(#79928649ae)"><g clip-path="url(#475fe93b98)"><path fill="#121514" d="M 122.066406 50.695312 L 271.691406 50.695312 L 271.691406 215.394531 L 122.066406 215.394531 Z M 122.066406 50.695312 " fill-opacity="1" fill-rule="nonzero"/></g></g><g clip-path="url(#5751a85c44)"><g clip-path="url(#9795718875)"><path fill="#121514" d="M 122.066406 50.695312 L 271.691406 50.695312 L 271.691406 215.394531 L 122.066406 215.394531 Z M 122.066406 50.695312 " fill-opacity="1" fill-rule="nonzero"/></g></g><g clip-path="url(#81523b6d51)"><g clip-path="url(#e4b3eecc13)"><path fill="#121514" d="M 122.066406 50.695312 L 271.691406 50.695312 L 271.691406 215.394531 L 122.066406 215.394531 Z M 122.066406 50.695312 " fill-opacity="1" fill-rule="nonzero"/></g></g><g fill="#121514" fill-opacity="1"><g transform="translate(82.171779, 299.857188)"><g><path d="M 8.902344 0 L 8.902344 -22.972656 L 22.007812 0 L 28.855469 0 L 28.855469 -32.046875 L 22.804688 -32.046875 L 22.804688 -9.113281 L 9.660156 -32.046875 L 2.855469 -32.046875 L 2.855469 0 Z M 8.902344 0 "/></g></g></g><g fill="#121514" fill-opacity="1"><g transform="translate(116.401776, 299.857188)"><g><path d="M 8.902344 0 L 8.902344 -12.808594 L 16.675781 -12.808594 C 22.679688 -12.808594 26.839844 -16.421875 26.839844 -22.597656 C 26.839844 -29.230469 22.679688 -32.046875 16.675781 -32.046875 L 2.855469 -32.046875 L 2.855469 0 Z M 8.902344 -26.628906 L 15.835938 -26.628906 C 19.027344 -26.628906 20.832031 -25.117188 20.832031 -22.386719 C 20.832031 -19.570312 19.066406 -18.101562 15.835938 -18.101562 L 8.902344 -18.101562 Z M 8.902344 -26.628906 "/></g></g></g><g fill="#4a6cf7" fill-opacity="1"><g transform="translate(149.48453, 291.982246)"><g><path d="M 12.46875 -15.4375 L 12.46875 -12.4375 L 8.375 -12.4375 L 8.375 0 L 4.625 0 L 4.625 -12.4375 L 0.53125 -12.4375 L 0.53125 -15.4375 Z M 12.46875 -15.4375 "/></g></g></g><g fill="#4a6cf7" fill-opacity="1"><g transform="translate(162.704216, 291.982246)"><g><path d="M 12.9375 -6.34375 C 12.9375 -5.988281 12.914062 -5.617188 12.875 -5.234375 L 4.359375 -5.234375 C 4.410156 -4.472656 4.648438 -3.890625 5.078125 -3.484375 C 5.515625 -3.078125 6.050781 -2.875 6.6875 -2.875 C 7.625 -2.875 8.273438 -3.269531 8.640625 -4.0625 L 12.65625 -4.0625 C 12.445312 -3.257812 12.070312 -2.535156 11.53125 -1.890625 C 11 -1.242188 10.328125 -0.738281 9.515625 -0.375 C 8.710938 -0.0078125 7.8125 0.171875 6.8125 0.171875 C 5.613281 0.171875 4.546875 -0.0820312 3.609375 -0.59375 C 2.671875 -1.101562 1.9375 -1.832031 1.40625 -2.78125 C 0.875 -3.738281 0.609375 -4.859375 0.609375 -6.140625 C 0.609375 -7.410156 0.867188 -8.519531 1.390625 -9.46875 C 1.910156 -10.425781 2.640625 -11.160156 3.578125 -11.671875 C 4.523438 -12.191406 5.601562 -12.453125 6.8125 -12.453125 C 8.007812 -12.453125 9.066406 -12.203125 9.984375 -11.703125 C 10.910156 -11.203125 11.632812 -10.488281 12.15625 -9.5625 C 12.675781 -8.644531 12.9375 -7.570312 12.9375 -6.34375 Z M 9.09375 -7.328125 C 9.09375 -7.972656 8.867188 -8.484375 8.421875 -8.859375 C 7.984375 -9.242188 7.4375 -9.4375 6.78125 -9.4375 C 6.144531 -9.4375 5.609375 -9.253906 5.171875 -8.890625 C 4.742188 -8.523438 4.476562 -8.003906 4.375 -7.328125 Z M 9.09375 -7.328125 "/></g></g></g><g fill="#4a6cf7" fill-opacity="1"><g transform="translate(176.473802, 291.982246)"><g><path d="M 0.609375 -6.140625 C 0.609375 -7.410156 0.867188 -8.519531 1.390625 -9.46875 C 1.910156 -10.425781 2.632812 -11.160156 3.5625 -11.671875 C 4.5 -12.191406 5.570312 -12.453125 6.78125 -12.453125 C 8.320312 -12.453125 9.609375 -12.046875 10.640625 -11.234375 C 11.671875 -10.429688 12.347656 -9.296875 12.671875 -7.828125 L 8.671875 -7.828125 C 8.328125 -8.765625 7.671875 -9.234375 6.703125 -9.234375 C 6.015625 -9.234375 5.460938 -8.96875 5.046875 -8.4375 C 4.640625 -7.90625 4.4375 -7.140625 4.4375 -6.140625 C 4.4375 -5.140625 4.640625 -4.367188 5.046875 -3.828125 C 5.460938 -3.296875 6.015625 -3.03125 6.703125 -3.03125 C 7.671875 -3.03125 8.328125 -3.5 8.671875 -4.4375 L 12.671875 -4.4375 C 12.347656 -3 11.664062 -1.867188 10.625 -1.046875 C 9.582031 -0.234375 8.300781 0.171875 6.78125 0.171875 C 5.570312 0.171875 4.5 -0.0820312 3.5625 -0.59375 C 2.632812 -1.101562 1.910156 -1.832031 1.390625 -2.78125 C 0.867188 -3.738281 0.609375 -4.859375 0.609375 -6.140625 Z M 0.609375 -6.140625 "/></g></g></g><g fill="#4a6cf7" fill-opacity="1"><g transform="translate(190.001424, 291.982246)"><g><path d="M 8.90625 -12.40625 C 10.3125 -12.40625 11.441406 -11.9375 12.296875 -11 C 13.148438 -10.070312 13.578125 -8.796875 13.578125 -7.171875 L 13.578125 0 L 9.828125 0 L 9.828125 -6.671875 C 9.828125 -7.484375 9.613281 -8.117188 9.1875 -8.578125 C 8.769531 -9.035156 8.203125 -9.265625 7.484375 -9.265625 C 6.765625 -9.265625 6.191406 -9.035156 5.765625 -8.578125 C 5.335938 -8.117188 5.125 -7.484375 5.125 -6.671875 L 5.125 0 L 1.359375 0 L 1.359375 -16.28125 L 5.125 -16.28125 L 5.125 -10.625 C 5.507812 -11.164062 6.03125 -11.597656 6.6875 -11.921875 C 7.34375 -12.242188 8.082031 -12.40625 8.90625 -12.40625 Z M 8.90625 -12.40625 "/></g></g></g><g fill="#4a6cf7" fill-opacity="1"><g transform="translate(205.046788, 291.982246)"><g><path d="M 10.984375 -2.734375 L 5.21875 -2.734375 L 4.296875 0 L 0.359375 0 L 5.9375 -15.4375 L 10.296875 -15.4375 L 15.890625 0 L 11.90625 0 Z M 10.015625 -5.625 L 8.09375 -11.28125 L 6.203125 -5.625 Z M 10.015625 -5.625 "/></g></g></g><g fill="#4a6cf7" fill-opacity="1"><g transform="translate(221.477904, 291.982246)"><g><path d="M 0.609375 -6.15625 C 0.609375 -7.414062 0.847656 -8.519531 1.328125 -9.46875 C 1.804688 -10.425781 2.457031 -11.160156 3.28125 -11.671875 C 4.101562 -12.191406 5.019531 -12.453125 6.03125 -12.453125 C 6.832031 -12.453125 7.566406 -12.28125 8.234375 -11.9375 C 8.898438 -11.601562 9.425781 -11.148438 9.8125 -10.578125 L 9.8125 -16.28125 L 13.578125 -16.28125 L 13.578125 0 L 9.8125 0 L 9.8125 -1.765625 C 9.457031 -1.171875 8.953125 -0.695312 8.296875 -0.34375 C 7.648438 0 6.894531 0.171875 6.03125 0.171875 C 5.019531 0.171875 4.101562 -0.0859375 3.28125 -0.609375 C 2.457031 -1.128906 1.804688 -1.867188 1.328125 -2.828125 C 0.847656 -3.785156 0.609375 -4.894531 0.609375 -6.15625 Z M 9.8125 -6.140625 C 9.8125 -7.078125 9.550781 -7.816406 9.03125 -8.359375 C 8.507812 -8.898438 7.875 -9.171875 7.125 -9.171875 C 6.375 -9.171875 5.738281 -8.898438 5.21875 -8.359375 C 4.695312 -7.828125 4.4375 -7.09375 4.4375 -6.15625 C 4.4375 -5.21875 4.695312 -4.472656 5.21875 -3.921875 C 5.738281 -3.378906 6.375 -3.109375 7.125 -3.109375 C 7.875 -3.109375 8.507812 -3.378906 9.03125 -3.921875 C 9.550781 -4.460938 9.8125 -5.203125 9.8125 -6.140625 Z M 9.8125 -6.140625 "/></g></g></g><g fill="#4a6cf7" fill-opacity="1"><g transform="translate(236.633246, 291.982246)"><g><path d="M 6.890625 -3.515625 L 9.546875 -12.28125 L 13.546875 -12.28125 L 9.203125 0 L 4.546875 0 L 0.203125 -12.28125 L 4.21875 -12.28125 Z M 6.890625 -3.515625 "/></g></g></g><g fill="#4a6cf7" fill-opacity="1"><g transform="translate(250.622783, 291.982246)"><g><path d="M 3.25 -13.546875 C 2.59375 -13.546875 2.054688 -13.738281 1.640625 -14.125 C 1.222656 -14.519531 1.015625 -15.003906 1.015625 -15.578125 C 1.015625 -16.160156 1.222656 -16.644531 1.640625 -17.03125 C 2.054688 -17.425781 2.59375 -17.625 3.25 -17.625 C 3.894531 -17.625 4.425781 -17.425781 4.84375 -17.03125 C 5.269531 -16.644531 5.484375 -16.160156 5.484375 -15.578125 C 5.484375 -15.003906 5.269531 -14.519531 4.84375 -14.125 C 4.425781 -13.738281 3.894531 -13.546875 3.25 -13.546875 Z M 5.125 -12.28125 L 5.125 0 L 1.359375 0 L 1.359375 -12.28125 Z M 5.125 -12.28125 "/></g></g></g><g fill="#4a6cf7" fill-opacity="1"><g transform="translate(257.33163, 291.982246)"><g><path d="M 6.359375 0.171875 C 5.285156 0.171875 4.332031 -0.0078125 3.5 -0.375 C 2.664062 -0.738281 2.003906 -1.238281 1.515625 -1.875 C 1.035156 -2.519531 0.765625 -3.238281 0.703125 -4.03125 L 4.421875 -4.03125 C 4.460938 -3.601562 4.660156 -3.253906 5.015625 -2.984375 C 5.367188 -2.722656 5.800781 -2.59375 6.3125 -2.59375 C 6.78125 -2.59375 7.140625 -2.679688 7.390625 -2.859375 C 7.648438 -3.046875 7.78125 -3.289062 7.78125 -3.59375 C 7.78125 -3.9375 7.597656 -4.191406 7.234375 -4.359375 C 6.867188 -4.535156 6.273438 -4.722656 5.453125 -4.921875 C 4.578125 -5.128906 3.84375 -5.347656 3.25 -5.578125 C 2.664062 -5.804688 2.160156 -6.164062 1.734375 -6.65625 C 1.304688 -7.144531 1.09375 -7.804688 1.09375 -8.640625 C 1.09375 -9.347656 1.285156 -9.988281 1.671875 -10.5625 C 2.066406 -11.144531 2.640625 -11.601562 3.390625 -11.9375 C 4.148438 -12.28125 5.050781 -12.453125 6.09375 -12.453125 C 7.632812 -12.453125 8.847656 -12.066406 9.734375 -11.296875 C 10.617188 -10.535156 11.128906 -9.523438 11.265625 -8.265625 L 7.78125 -8.265625 C 7.726562 -8.691406 7.539062 -9.03125 7.21875 -9.28125 C 6.90625 -9.53125 6.492188 -9.65625 5.984375 -9.65625 C 5.546875 -9.65625 5.207031 -9.570312 4.96875 -9.40625 C 4.738281 -9.238281 4.625 -9.007812 4.625 -8.71875 C 4.625 -8.363281 4.804688 -8.097656 5.171875 -7.921875 C 5.546875 -7.742188 6.132812 -7.566406 6.9375 -7.390625 C 7.84375 -7.160156 8.582031 -6.929688 9.15625 -6.703125 C 9.726562 -6.472656 10.226562 -6.101562 10.65625 -5.59375 C 11.09375 -5.09375 11.316406 -4.414062 11.328125 -3.5625 C 11.328125 -2.84375 11.125 -2.203125 10.71875 -1.640625 C 10.320312 -1.078125 9.742188 -0.632812 8.984375 -0.3125 C 8.234375 0.0078125 7.359375 0.171875 6.359375 0.171875 Z M 6.359375 0.171875 "/></g></g></g><g fill="#4a6cf7" fill-opacity="1"><g transform="translate(269.825441, 291.982246)"><g><path d="M 6.953125 0.171875 C 5.742188 0.171875 4.660156 -0.0820312 3.703125 -0.59375 C 2.742188 -1.101562 1.988281 -1.832031 1.4375 -2.78125 C 0.882812 -3.738281 0.609375 -4.859375 0.609375 -6.140625 C 0.609375 -7.398438 0.882812 -8.507812 1.4375 -9.46875 C 2 -10.425781 2.765625 -11.160156 3.734375 -11.671875 C 4.703125 -12.191406 5.789062 -12.453125 7 -12.453125 C 8.195312 -12.453125 9.28125 -12.191406 10.25 -11.671875 C 11.21875 -11.160156 11.976562 -10.425781 12.53125 -9.46875 C 13.09375 -8.507812 13.375 -7.398438 13.375 -6.140625 C 13.375 -4.878906 13.09375 -3.765625 12.53125 -2.796875 C 11.96875 -1.835938 11.195312 -1.101562 10.21875 -0.59375 C 9.238281 -0.0820312 8.148438 0.171875 6.953125 0.171875 Z M 6.953125 -3.078125 C 7.671875 -3.078125 8.28125 -3.335938 8.78125 -3.859375 C 9.289062 -4.390625 9.546875 -5.148438 9.546875 -6.140625 C 9.546875 -7.117188 9.300781 -7.875 8.8125 -8.40625 C 8.320312 -8.9375 7.71875 -9.203125 7 -9.203125 C 6.257812 -9.203125 5.644531 -8.941406 5.15625 -8.421875 C 4.675781 -7.898438 4.4375 -7.140625 4.4375 -6.140625 C 4.4375 -5.148438 4.675781 -4.390625 5.15625 -3.859375 C 5.632812 -3.335938 6.234375 -3.078125 6.953125 -3.078125 Z M 6.953125 -3.078125 "/></g></g></g><g fill="#4a6cf7" fill-opacity="1"><g transform="translate(284.056947, 291.982246)"><g><path d="M 5.125 -10.234375 C 5.5625 -10.898438 6.109375 -11.425781 6.765625 -11.8125 C 7.429688 -12.207031 8.164062 -12.40625 8.96875 -12.40625 L 8.96875 -8.421875 L 7.9375 -8.421875 C 7 -8.421875 6.296875 -8.21875 5.828125 -7.8125 C 5.359375 -7.414062 5.125 -6.710938 5.125 -5.703125 L 5.125 0 L 1.359375 0 L 1.359375 -12.28125 L 5.125 -12.28125 Z M 5.125 -10.234375 "/></g></g></g></svg>