<svg xmlns="http://www.w3.org/2000/svg" xmlns:xlink="http://www.w3.org/1999/xlink" width="500" zoomAndPan="magnify" viewBox="0 0 375 374.999991" height="500" preserveAspectRatio="xMidYMid meet" version="1.0"><defs><g/><clipPath id="90ffa168c4"><path d="M 100.171875 130.1875 L 127 130.1875 L 127 137.429688 L 100.171875 137.429688 Z M 100.171875 130.1875 " clip-rule="nonzero"/></clipPath><clipPath id="a2ee1eeec3"><path d="M 119.957031 130.1875 C 118.660156 130.1875 117.363281 130.21875 116.070312 130.21875 L 103.828125 130.25 C 101.742188 130.292969 100.183594 131.933594 100.171875 133.804688 L 100.171875 133.851562 C 100.171875 133.902344 100.171875 133.953125 100.175781 134.003906 C 100.285156 136.066406 101.644531 137.347656 103.902344 137.378906 L 113.128906 137.390625 C 114.945312 137.390625 116.757812 137.425781 118.570312 137.425781 C 120.019531 137.425781 121.472656 137.402344 122.917969 137.324219 C 123.886719 137.273438 125.121094 136.628906 125.695312 135.855469 C 127.441406 133.496094 125.746094 130.425781 122.660156 130.253906 C 121.761719 130.203125 120.863281 130.1875 119.957031 130.1875 Z M 119.957031 130.1875 " clip-rule="nonzero"/></clipPath><clipPath id="f207eb5721"><path d="M 158.40625 221.089844 L 211.457031 221.089844 L 211.457031 229.808594 L 158.40625 229.808594 Z M 158.40625 221.089844 " clip-rule="nonzero"/></clipPath><clipPath id="5b12f0d4c6"><path d="M 185.121094 221.09375 L 206.601562 221.097656 C 209.429688 221.101562 211.230469 222.726562 211.34375 225.3125 C 211.449219 227.605469 209.359375 229.636719 206.679688 229.765625 L 202.15625 229.796875 C 189.65625 229.792969 177.160156 229.792969 164.664062 229.769531 C 163.730469 229.769531 162.773438 229.707031 161.875 229.484375 C 159.785156 228.964844 158.425781 227.011719 158.628906 225.019531 C 158.871094 222.679688 160.488281 221.125 162.890625 221.117188 L 185.121094 221.101562 Z M 185.121094 221.09375 " clip-rule="nonzero"/></clipPath><clipPath id="4d41311822"><path d="M 170.109375 236.21875 L 199.777344 236.21875 L 199.777344 244.867188 L 170.109375 244.867188 Z M 170.109375 236.21875 " clip-rule="nonzero"/></clipPath><clipPath id="c87fd6e5ff"><path d="M 185.175781 236.230469 L 195.347656 236.238281 C 198.042969 236.265625 199.753906 237.953125 199.761719 240.511719 C 199.769531 243.152344 198.199219 244.828125 195.421875 244.855469 L 174.703125 244.855469 C 171.769531 244.824219 170.140625 243.128906 170.175781 240.472656 C 170.214844 237.769531 171.824219 236.269531 174.816406 236.238281 L 185.175781 236.230469 " clip-rule="nonzero"/></clipPath><clipPath id="495b3147af"><path d="M 177 93 L 241.917969 93 L 241.917969 206 L 177 206 Z M 177 93 " clip-rule="nonzero"/></clipPath><clipPath id="a5c8c71158"><path d="M 215.535156 152.207031 C 215.507812 134.027344 203.800781 120.980469 188.511719 119.1875 C 184.257812 118.691406 181.355469 115.847656 181.269531 112.089844 C 181.179688 108.054688 183.660156 105.113281 188.113281 104.515625 C 192.386719 103.945312 195.289062 101.824219 197.023438 97.933594 C 197.375 97.132812 197.800781 96.351562 198.300781 95.636719 C 199.886719 93.378906 201.980469 92.769531 204.519531 93.796875 C 206.4375 94.574219 208.367188 95.320312 210.230469 96.214844 C 213.039062 97.5625 213.65625 99.316406 213 102.375 C 212.429688 105.023438 212.175781 107.75 211.792969 110.4375 L 211.796875 110.832031 C 214.589844 116.117188 218.203125 120.410156 223.867188 122.242188 C 225.484375 122.769531 227.542969 122.023438 229.378906 121.742188 C 230.425781 121.578125 231.421875 121.128906 232.453125 120.894531 C 235.023438 120.308594 236.710938 121.042969 237.875 123.4375 C 238.914062 125.574219 239.832031 127.777344 240.679688 130 C 241.523438 132.203125 240.929688 134.050781 238.96875 135.421875 C 237.792969 136.25 236.5 136.914062 235.25 137.632812 C 232.003906 139.484375 230.078125 142.117188 230.160156 146.003906 C 230.21875 148.703125 230.105469 151.414062 230.28125 154.109375 C 230.464844 156.878906 232.101562 158.863281 234.367188 160.320312 L 238.445312 162.664062 C 241.101562 164.300781 241.769531 166.128906 240.707031 169.050781 L 238.425781 174.613281 C 237.085938 177.519531 235.097656 178.355469 231.96875 177.566406 C 229.972656 177.058594 227.96875 176.523438 225.933594 176.273438 C 223.628906 175.992188 221.613281 176.925781 219.953125 178.515625 C 218.09375 180.300781 216.238281 182.09375 214.492188 183.988281 C 212.101562 186.578125 211.269531 189.570312 212.480469 193.015625 L 213.511719 196.625 C 214.207031 199.449219 213.460938 201.257812 210.863281 202.542969 C 208.792969 203.566406 206.648438 204.480469 204.472656 205.25 C 202.046875 206.109375 200.210938 205.402344 198.792969 203.226562 L 196.304688 199.019531 C 194.464844 196.191406 191.882812 194.710938 188.433594 194.699219 C 186.511719 194.695312 184.457031 194.789062 182.699219 194.167969 C 178.835938 192.808594 177.074219 189.296875 177.863281 185.46875 C 178.527344 182.261719 181.636719 179.769531 185.402344 179.886719 C 192.046875 180.105469 197.910156 178.003906 203.113281 174.101562 C 211.335938 167.9375 215.378906 159.570312 215.519531 152.214844 " clip-rule="nonzero"/></clipPath><clipPath id="13400b2bc1"><path d="M 136 89 L 189 89 L 189 213.886719 L 136 213.886719 Z M 136 89 " clip-rule="nonzero"/></clipPath><clipPath id="6948947a21"><path d="M 175.949219 213.300781 C 172.75 213.300781 169.519531 213.5625 166.355469 213.238281 C 161.527344 212.742188 157.734375 209.164062 157.230469 204.355469 C 156.269531 195.238281 153.109375 186.8125 149.644531 178.484375 C 147.023438 172.1875 144.125 165.992188 141.078125 159.886719 C 136.921875 151.5625 135.496094 142.859375 136.246094 133.625 C 137.929688 112.8125 153.738281 94.992188 173.785156 90.402344 C 177.003906 89.664062 180.359375 89.453125 183.664062 89.175781 C 185.597656 89.011719 187.261719 89.757812 188.160156 91.636719 C 188.933594 93.246094 188.894531 94.984375 187.648438 96.183594 C 186.753906 97.042969 185.304688 97.703125 184.0625 97.769531 C 175.550781 98.195312 167.808594 100.691406 161.027344 105.910156 C 153.082031 112.027344 147.761719 119.898438 145.601562 129.730469 C 143.609375 138.792969 144.527344 147.566406 148.863281 155.871094 C 155.144531 167.894531 160.410156 180.332031 164.082031 193.410156 C 164.859375 196.171875 165.257812 199.050781 165.683594 201.894531 C 166.015625 204.117188 166.644531 204.855469 168.960938 204.871094 L 183.855469 204.894531 C 186.730469 204.90625 188.660156 206.683594 188.648438 209.253906 C 188.636719 211.652344 186.625 213.492188 183.871094 213.539062 L 175.949219 213.550781 Z M 175.949219 213.300781 " clip-rule="nonzero"/></clipPath><clipPath id="f3ec918902"><path d="M 163 126.074219 L 208.753906 126.074219 L 208.753906 172.808594 L 163 172.808594 Z M 163 126.074219 " clip-rule="nonzero"/></clipPath><clipPath id="8a4176f6ea"><path d="M 197.878906 149.359375 C 197.90625 142.609375 192.304688 137.003906 185.574219 137.054688 C 178.835938 137.109375 173.242188 142.691406 173.277344 149.4375 C 173.316406 155.875 178.203125 161.910156 185.757812 161.792969 C 193.925781 161.660156 198.191406 155.019531 197.878906 149.359375 M 202.632812 138.488281 C 202.714844 138.472656 203.136719 138.34375 203.566406 138.316406 C 204.496094 138.253906 205.992188 137.886719 206.253906 138.289062 C 207.105469 139.597656 207.648438 141.171875 207.976562 142.714844 C 208.0625 143.128906 207.039062 143.90625 206.402344 144.332031 C 203.882812 146.007812 202.75 149.269531 204.09375 151.992188 C 204.574219 152.960938 205.652344 153.714844 206.59375 154.359375 C 208.324219 155.542969 208.53125 156.203125 207.582031 158.511719 C 206.941406 160.082031 206.234375 161.394531 204.128906 160.515625 C 200.207031 158.878906 194.980469 164.207031 196.941406 168.027344 C 197.640625 169.382812 197.035156 170.355469 195.613281 171 C 192.253906 172.515625 192.273438 172.558594 190.289062 169.480469 C 188.351562 166.472656 182.941406 166.671875 181.003906 169.828125 C 179.378906 172.472656 179.230469 172.519531 176.375 171.332031 C 174.160156 170.40625 173.863281 169.980469 174.617188 167.605469 C 175.4375 165.015625 174.070312 163.46875 172.410156 161.890625 C 170.902344 160.453125 169.320312 159.824219 167.308594 160.753906 C 165.875 161.414062 164.804688 161.054688 164.085938 159.542969 C 162.78125 156.800781 162.8125 155.859375 164.445312 154.777344 C 167.390625 152.816406 168.058594 151.054688 167.398438 147.664062 C 167.066406 145.949219 165.929688 145.152344 164.550781 144.433594 C 162.871094 143.554688 162.699219 142.761719 163.570312 140.511719 C 164.476562 138.167969 165.011719 137.816406 166.933594 138.296875 C 170.152344 139.101562 173.875 137.054688 174.671875 133.882812 C 174.878906 133.058594 174.574219 132.027344 174.289062 131.164062 C 173.738281 129.488281 174.050781 128.347656 175.847656 127.800781 L 177.402344 127.128906 C 178.65625 126.53125 179.496094 126.90625 180.214844 128.085938 C 182.179688 131.324219 184.023438 132.203125 187.5625 131.1875 C 188.65625 130.875 189.660156 129.699219 190.363281 128.6875 C 191.832031 126.578125 192.316406 126.355469 194.835938 127.5 C 197.015625 128.492188 197.328125 129.191406 196.609375 131.453125 C 195.65625 134.472656 198.96875 138.597656 202.621094 138.484375 " clip-rule="nonzero"/></clipPath><clipPath id="8ac5dd6ab4"><path d="M 123.199219 72.179688 L 144.679688 72.179688 L 144.679688 94 L 123.199219 94 Z M 123.199219 72.179688 " clip-rule="nonzero"/></clipPath><clipPath id="5ba6d33f3b"><path d="M 144.648438 89.570312 C 144.597656 92.46875 141.460938 94.304688 139.417969 93.113281 L 137.929688 91.972656 C 133.730469 87.824219 129.523438 83.683594 125.382812 79.476562 C 123.25 77.304688 123.558594 74.6875 125.945312 73.316406 C 127.414062 72.46875 128.792969 72.699219 129.917969 73.804688 L 143.625 87.535156 C 144.230469 88.15625 144.445312 89.160156 144.644531 89.574219 " clip-rule="nonzero"/></clipPath><clipPath id="b6d473013d"><path d="M 225 72.179688 L 246 72.179688 L 246 94.039062 L 225 94.039062 Z M 225 72.179688 " clip-rule="nonzero"/></clipPath><clipPath id="697bb517a6"><path d="M 228.628906 94.011719 C 227.523438 92.976562 226.183594 92.242188 225.71875 91.132812 C 225.328125 90.203125 225.566406 88.507812 226.21875 87.734375 C 228.320312 85.246094 230.734375 83.019531 233.042969 80.707031 L 239.480469 74.34375 C 241.546875 72.40625 243.316406 72.351562 244.90625 73.996094 C 246.429688 75.578125 246.34375 77.65625 244.515625 79.511719 L 232.21875 91.753906 C 231.320312 92.625 230.058594 93.128906 228.628906 94.011719 " clip-rule="nonzero"/></clipPath><clipPath id="a501f4f043"><path d="M 243.425781 130 L 270 130 L 270 137.757812 L 243.425781 137.757812 Z M 243.425781 130 " clip-rule="nonzero"/></clipPath><clipPath id="176cda6714"><path d="M 250.992188 130.210938 C 250.4375 130.210938 249.886719 130.210938 249.332031 130.210938 L 246.890625 130.265625 C 244.894531 130.515625 243.46875 132.128906 243.558594 133.953125 C 243.664062 135.996094 245.066406 137.363281 247.210938 137.386719 L 256.4375 137.398438 L 266.226562 137.386719 C 268.207031 137.359375 269.578125 136.078125 269.785156 134.21875 C 269.972656 132.542969 268.664062 130.804688 266.828125 130.40625 C 266.097656 130.246094 265.332031 130.230469 264.585938 130.230469 C 260.058594 130.214844 255.523438 130.210938 250.988281 130.210938 Z M 250.992188 130.210938 " clip-rule="nonzero"/></clipPath><clipPath id="de52a17143"><path d="M 181.238281 52.578125 L 188.777344 52.578125 L 188.777344 78.585938 L 181.238281 78.585938 Z M 181.238281 52.578125 " clip-rule="nonzero"/></clipPath><clipPath id="c2b915ffb5"><path d="M 185.195312 52.582031 C 184.320312 52.585938 183.367188 52.835938 182.738281 53.261719 C 181.9375 53.800781 181.40625 55.269531 181.378906 56.347656 C 181.246094 62.363281 181.292969 68.386719 181.289062 74.40625 L 181.433594 75.328125 C 181.886719 77.398438 183.128906 78.527344 184.929688 78.527344 C 185.070312 78.527344 185.210938 78.519531 185.359375 78.507812 C 187.207031 78.335938 188.421875 76.878906 188.441406 74.71875 L 188.449219 65.878906 L 188.472656 65.878906 C 188.472656 62.429688 188.621094 58.976562 188.375 55.542969 C 188.304688 54.53125 187.289062 53.113281 186.375 52.769531 C 186.039062 52.640625 185.632812 52.585938 185.214844 52.582031 Z M 185.195312 52.582031 " clip-rule="nonzero"/></clipPath></defs><g clip-path="url(#90ffa168c4)"><g clip-path="url(#a2ee1eeec3)"><path fill="#ffffff" d="M 100.171875 130.1875 L 126.386719 130.1875 L 126.386719 137.429688 L 100.171875 137.429688 Z M 100.171875 130.1875 " fill-opacity="1" fill-rule="nonzero"/></g></g><g clip-path="url(#f207eb5721)"><g clip-path="url(#5b12f0d4c6)"><path fill="#ffffff" d="M 158.609375 221.089844 L 211.351562 221.089844 L 211.351562 229.808594 L 158.609375 229.808594 Z M 158.609375 221.089844 " fill-opacity="1" fill-rule="nonzero"/></g></g><g clip-path="url(#4d41311822)"><g clip-path="url(#c87fd6e5ff)"><path fill="#ffffff" d="M 170.175781 236.21875 L 199.777344 236.21875 L 199.777344 244.902344 L 170.175781 244.902344 Z M 170.175781 236.21875 " fill-opacity="1" fill-rule="nonzero"/></g></g><g clip-path="url(#495b3147af)"><g clip-path="url(#a5c8c71158)"><path fill="#01fefd" d="M 122.066406 50.695312 L 271.691406 50.695312 L 271.691406 215.394531 L 122.066406 215.394531 Z M 122.066406 50.695312 " fill-opacity="1" fill-rule="nonzero"/></g></g><g clip-path="url(#13400b2bc1)"><g clip-path="url(#6948947a21)"><path fill="#01fefd" d="M 122.066406 50.695312 L 271.691406 50.695312 L 271.691406 215.394531 L 122.066406 215.394531 Z M 122.066406 50.695312 " fill-opacity="1" fill-rule="nonzero"/></g></g><g clip-path="url(#f3ec918902)"><g clip-path="url(#8a4176f6ea)"><path fill="#ffffff" d="M 122.066406 50.695312 L 271.691406 50.695312 L 271.691406 215.394531 L 122.066406 215.394531 Z M 122.066406 50.695312 " fill-opacity="1" fill-rule="nonzero"/></g></g><g clip-path="url(#8ac5dd6ab4)"><g clip-path="url(#5ba6d33f3b)"><path fill="#ffffff" d="M 122.066406 50.695312 L 271.691406 50.695312 L 271.691406 215.394531 L 122.066406 215.394531 Z M 122.066406 50.695312 " fill-opacity="1" fill-rule="nonzero"/></g></g><g clip-path="url(#b6d473013d)"><g clip-path="url(#697bb517a6)"><path fill="#ffffff" d="M 122.066406 50.695312 L 271.691406 50.695312 L 271.691406 215.394531 L 122.066406 215.394531 Z M 122.066406 50.695312 " fill-opacity="1" fill-rule="nonzero"/></g></g><g clip-path="url(#a501f4f043)"><g clip-path="url(#176cda6714)"><path fill="#ffffff" d="M 122.066406 50.695312 L 271.691406 50.695312 L 271.691406 215.394531 L 122.066406 215.394531 Z M 122.066406 50.695312 " fill-opacity="1" fill-rule="nonzero"/></g></g><g clip-path="url(#de52a17143)"><g clip-path="url(#c2b915ffb5)"><path fill="#ffffff" d="M 122.066406 50.695312 L 271.691406 50.695312 L 271.691406 215.394531 L 122.066406 215.394531 Z M 122.066406 50.695312 " fill-opacity="1" fill-rule="nonzero"/></g></g><g fill="#ffffff" fill-opacity="1"><g transform="translate(97.848902, 290.606525)"><g><path d="M 6.402344 0 L 6.402344 -16.515625 L 15.820312 0 L 20.742188 0 L 20.742188 -23.039062 L 16.394531 -23.039062 L 16.394531 -6.550781 L 6.945312 -23.039062 L 2.054688 -23.039062 L 2.054688 0 Z M 6.402344 0 "/></g></g></g><g fill="#ffffff" fill-opacity="1"><g transform="translate(122.452574, 290.606525)"><g><path d="M 6.402344 0 L 6.402344 -9.210938 L 11.988281 -9.210938 C 16.304688 -9.210938 19.292969 -11.804688 19.292969 -16.246094 C 19.292969 -21.015625 16.304688 -23.039062 11.988281 -23.039062 L 2.054688 -23.039062 L 2.054688 0 Z M 6.402344 -19.144531 L 11.382812 -19.144531 C 13.679688 -19.144531 14.976562 -18.054688 14.976562 -16.09375 C 14.976562 -14.070312 13.707031 -13.015625 11.382812 -13.015625 L 6.402344 -13.015625 Z M 6.402344 -19.144531 "/></g></g></g><g fill="#01fefd" fill-opacity="1"><g transform="translate(149.697548, 287.231525)"><g><path d="M 8.609375 -11.84375 L 8.609375 -10.59375 L 5.375 -10.59375 L 5.375 0 L 3.828125 0 L 3.828125 -10.59375 L 0.578125 -10.59375 L 0.578125 -11.84375 Z M 8.609375 -11.84375 "/></g></g></g><g fill="#01fefd" fill-opacity="1"><g transform="translate(160.591022, 287.231525)"><g><path d="M 9.8125 -5.015625 C 9.8125 -4.722656 9.796875 -4.410156 9.765625 -4.078125 L 2.3125 -4.078125 C 2.363281 -3.160156 2.675781 -2.441406 3.25 -1.921875 C 3.820312 -1.410156 4.519531 -1.15625 5.34375 -1.15625 C 6.007812 -1.15625 6.566406 -1.3125 7.015625 -1.625 C 7.460938 -1.9375 7.773438 -2.351562 7.953125 -2.875 L 9.625 -2.875 C 9.375 -1.976562 8.875 -1.25 8.125 -0.6875 C 7.375 -0.125 6.445312 0.15625 5.34375 0.15625 C 4.457031 0.15625 3.664062 -0.0390625 2.96875 -0.4375 C 2.269531 -0.832031 1.722656 -1.394531 1.328125 -2.125 C 0.929688 -2.863281 0.734375 -3.710938 0.734375 -4.671875 C 0.734375 -5.640625 0.925781 -6.484375 1.3125 -7.203125 C 1.695312 -7.929688 2.238281 -8.488281 2.9375 -8.875 C 3.632812 -9.269531 4.4375 -9.46875 5.34375 -9.46875 C 6.21875 -9.46875 6.992188 -9.273438 7.671875 -8.890625 C 8.359375 -8.503906 8.882812 -7.972656 9.25 -7.296875 C 9.625 -6.628906 9.8125 -5.867188 9.8125 -5.015625 Z M 8.21875 -5.34375 C 8.21875 -5.925781 8.082031 -6.429688 7.8125 -6.859375 C 7.550781 -7.285156 7.195312 -7.609375 6.75 -7.828125 C 6.3125 -8.046875 5.816406 -8.15625 5.265625 -8.15625 C 4.484375 -8.15625 3.816406 -7.90625 3.265625 -7.40625 C 2.722656 -6.90625 2.410156 -6.21875 2.328125 -5.34375 Z M 8.21875 -5.34375 "/></g></g></g><g fill="#01fefd" fill-opacity="1"><g transform="translate(172.826877, 287.231525)"><g><path d="M 0.734375 -4.671875 C 0.734375 -5.640625 0.925781 -6.484375 1.3125 -7.203125 C 1.695312 -7.921875 2.226562 -8.476562 2.90625 -8.875 C 3.59375 -9.269531 4.378906 -9.46875 5.265625 -9.46875 C 6.410156 -9.46875 7.351562 -9.1875 8.09375 -8.625 C 8.84375 -8.070312 9.335938 -7.304688 9.578125 -6.328125 L 7.90625 -6.328125 C 7.75 -6.890625 7.441406 -7.332031 6.984375 -7.65625 C 6.523438 -7.988281 5.953125 -8.15625 5.265625 -8.15625 C 4.378906 -8.15625 3.664062 -7.851562 3.125 -7.25 C 2.582031 -6.644531 2.3125 -5.785156 2.3125 -4.671875 C 2.3125 -3.546875 2.582031 -2.675781 3.125 -2.0625 C 3.664062 -1.457031 4.378906 -1.15625 5.265625 -1.15625 C 5.953125 -1.15625 6.519531 -1.3125 6.96875 -1.625 C 7.425781 -1.945312 7.738281 -2.398438 7.90625 -2.984375 L 9.578125 -2.984375 C 9.328125 -2.035156 8.828125 -1.273438 8.078125 -0.703125 C 7.328125 -0.128906 6.390625 0.15625 5.265625 0.15625 C 4.378906 0.15625 3.59375 -0.0390625 2.90625 -0.4375 C 2.226562 -0.832031 1.695312 -1.394531 1.3125 -2.125 C 0.925781 -2.851562 0.734375 -3.703125 0.734375 -4.671875 Z M 0.734375 -4.671875 "/></g></g></g><g fill="#01fefd" fill-opacity="1"><g transform="translate(184.841837, 287.231525)"><g><path d="M 5.9375 -9.484375 C 6.632812 -9.484375 7.265625 -9.332031 7.828125 -9.03125 C 8.398438 -8.726562 8.847656 -8.273438 9.171875 -7.671875 C 9.492188 -7.078125 9.65625 -6.347656 9.65625 -5.484375 L 9.65625 0 L 8.125 0 L 8.125 -5.265625 C 8.125 -6.191406 7.890625 -6.898438 7.421875 -7.390625 C 6.960938 -7.890625 6.332031 -8.140625 5.53125 -8.140625 C 4.707031 -8.140625 4.054688 -7.882812 3.578125 -7.375 C 3.097656 -6.863281 2.859375 -6.125 2.859375 -5.15625 L 2.859375 0 L 1.3125 0 L 1.3125 -12.578125 L 2.859375 -12.578125 L 2.859375 -7.984375 C 3.160156 -8.460938 3.582031 -8.832031 4.125 -9.09375 C 4.664062 -9.351562 5.269531 -9.484375 5.9375 -9.484375 Z M 5.9375 -9.484375 "/></g></g></g><g fill="#01fefd" fill-opacity="1"><g transform="translate(197.417536, 287.231525)"><g><path d="M 8.3125 -2.640625 L 3.140625 -2.640625 L 2.1875 0 L 0.5625 0 L 4.84375 -11.78125 L 6.625 -11.78125 L 10.890625 0 L 9.265625 0 Z M 7.875 -3.890625 L 5.734375 -9.875 L 3.59375 -3.890625 Z M 7.875 -3.890625 "/></g></g></g><g fill="#01fefd" fill-opacity="1"><g transform="translate(210.570968, 287.231525)"><g><path d="M 0.734375 -4.6875 C 0.734375 -5.644531 0.925781 -6.484375 1.3125 -7.203125 C 1.695312 -7.921875 2.222656 -8.476562 2.890625 -8.875 C 3.566406 -9.269531 4.328125 -9.46875 5.171875 -9.46875 C 5.890625 -9.46875 6.5625 -9.300781 7.1875 -8.96875 C 7.8125 -8.632812 8.289062 -8.195312 8.625 -7.65625 L 8.625 -12.578125 L 10.1875 -12.578125 L 10.1875 0 L 8.625 0 L 8.625 -1.75 C 8.3125 -1.195312 7.851562 -0.738281 7.25 -0.375 C 6.65625 -0.0195312 5.957031 0.15625 5.15625 0.15625 C 4.320312 0.15625 3.566406 -0.046875 2.890625 -0.453125 C 2.222656 -0.867188 1.695312 -1.441406 1.3125 -2.171875 C 0.925781 -2.910156 0.734375 -3.75 0.734375 -4.6875 Z M 8.625 -4.671875 C 8.625 -5.378906 8.476562 -5.992188 8.1875 -6.515625 C 7.90625 -7.035156 7.523438 -7.429688 7.046875 -7.703125 C 6.566406 -7.984375 6.035156 -8.125 5.453125 -8.125 C 4.878906 -8.125 4.351562 -7.988281 3.875 -7.71875 C 3.394531 -7.445312 3.015625 -7.050781 2.734375 -6.53125 C 2.453125 -6.007812 2.3125 -5.394531 2.3125 -4.6875 C 2.3125 -3.976562 2.453125 -3.359375 2.734375 -2.828125 C 3.015625 -2.304688 3.394531 -1.90625 3.875 -1.625 C 4.351562 -1.34375 4.878906 -1.203125 5.453125 -1.203125 C 6.035156 -1.203125 6.566406 -1.34375 7.046875 -1.625 C 7.523438 -1.90625 7.90625 -2.304688 8.1875 -2.828125 C 8.476562 -3.359375 8.625 -3.972656 8.625 -4.671875 Z M 8.625 -4.671875 "/></g></g></g><g fill="#01fefd" fill-opacity="1"><g transform="translate(223.758389, 287.231525)"><g><path d="M 4.78125 -1.421875 L 7.671875 -9.3125 L 9.3125 -9.3125 L 5.65625 0 L 3.859375 0 L 0.203125 -9.3125 L 1.875 -9.3125 Z M 4.78125 -1.421875 "/></g></g></g><g fill="#01fefd" fill-opacity="1"><g transform="translate(234.991708, 287.231525)"><g><path d="M 2.109375 -10.828125 C 1.816406 -10.828125 1.566406 -10.925781 1.359375 -11.125 C 1.148438 -11.332031 1.046875 -11.585938 1.046875 -11.890625 C 1.046875 -12.179688 1.148438 -12.425781 1.359375 -12.625 C 1.566406 -12.832031 1.816406 -12.9375 2.109375 -12.9375 C 2.390625 -12.9375 2.628906 -12.832031 2.828125 -12.625 C 3.023438 -12.425781 3.125 -12.179688 3.125 -11.890625 C 3.125 -11.585938 3.023438 -11.332031 2.828125 -11.125 C 2.628906 -10.925781 2.390625 -10.828125 2.109375 -10.828125 Z M 2.859375 -9.3125 L 2.859375 0 L 1.3125 0 L 1.3125 -9.3125 Z M 2.859375 -9.3125 "/></g></g></g><g fill="#01fefd" fill-opacity="1"><g transform="translate(240.872501, 287.231525)"><g><path d="M 4.609375 0.15625 C 3.890625 0.15625 3.25 0.0351562 2.6875 -0.203125 C 2.125 -0.453125 1.675781 -0.796875 1.34375 -1.234375 C 1.007812 -1.671875 0.828125 -2.171875 0.796875 -2.734375 L 2.390625 -2.734375 C 2.441406 -2.273438 2.660156 -1.894531 3.046875 -1.59375 C 3.441406 -1.300781 3.957031 -1.15625 4.59375 -1.15625 C 5.175781 -1.15625 5.640625 -1.285156 5.984375 -1.546875 C 6.328125 -1.804688 6.5 -2.132812 6.5 -2.53125 C 6.5 -2.9375 6.316406 -3.238281 5.953125 -3.4375 C 5.585938 -3.632812 5.023438 -3.832031 4.265625 -4.03125 C 3.578125 -4.207031 3.015625 -4.390625 2.578125 -4.578125 C 2.140625 -4.765625 1.765625 -5.039062 1.453125 -5.40625 C 1.140625 -5.78125 0.984375 -6.269531 0.984375 -6.875 C 0.984375 -7.34375 1.125 -7.773438 1.40625 -8.171875 C 1.695312 -8.566406 2.101562 -8.878906 2.625 -9.109375 C 3.144531 -9.347656 3.738281 -9.46875 4.40625 -9.46875 C 5.4375 -9.46875 6.269531 -9.207031 6.90625 -8.6875 C 7.539062 -8.164062 7.878906 -7.453125 7.921875 -6.546875 L 6.375 -6.546875 C 6.34375 -7.035156 6.144531 -7.425781 5.78125 -7.71875 C 5.425781 -8.007812 4.953125 -8.15625 4.359375 -8.15625 C 3.796875 -8.15625 3.347656 -8.035156 3.015625 -7.796875 C 2.691406 -7.566406 2.53125 -7.257812 2.53125 -6.875 C 2.53125 -6.5625 2.628906 -6.304688 2.828125 -6.109375 C 3.023438 -5.910156 3.273438 -5.75 3.578125 -5.625 C 3.878906 -5.507812 4.296875 -5.378906 4.828125 -5.234375 C 5.492188 -5.054688 6.035156 -4.878906 6.453125 -4.703125 C 6.878906 -4.523438 7.238281 -4.257812 7.53125 -3.90625 C 7.832031 -3.5625 7.988281 -3.101562 8 -2.53125 C 8 -2.019531 7.859375 -1.5625 7.578125 -1.15625 C 7.296875 -0.75 6.894531 -0.425781 6.375 -0.1875 C 5.863281 0.0390625 5.273438 0.15625 4.609375 0.15625 Z M 4.609375 0.15625 "/></g></g></g><g fill="#01fefd" fill-opacity="1"><g transform="translate(251.443127, 287.231525)"><g><path d="M 5.375 0.15625 C 4.5 0.15625 3.707031 -0.0390625 3 -0.4375 C 2.289062 -0.832031 1.734375 -1.394531 1.328125 -2.125 C 0.929688 -2.863281 0.734375 -3.710938 0.734375 -4.671875 C 0.734375 -5.628906 0.9375 -6.472656 1.34375 -7.203125 C 1.757812 -7.929688 2.320312 -8.488281 3.03125 -8.875 C 3.75 -9.269531 4.550781 -9.46875 5.4375 -9.46875 C 6.320312 -9.46875 7.117188 -9.269531 7.828125 -8.875 C 8.546875 -8.488281 9.113281 -7.929688 9.53125 -7.203125 C 9.945312 -6.484375 10.15625 -5.640625 10.15625 -4.671875 C 10.15625 -3.710938 9.941406 -2.863281 9.515625 -2.125 C 9.085938 -1.394531 8.507812 -0.832031 7.78125 -0.4375 C 7.0625 -0.0390625 6.257812 0.15625 5.375 0.15625 Z M 5.375 -1.203125 C 5.925781 -1.203125 6.445312 -1.332031 6.9375 -1.59375 C 7.425781 -1.851562 7.816406 -2.242188 8.109375 -2.765625 C 8.410156 -3.285156 8.5625 -3.921875 8.5625 -4.671875 C 8.5625 -5.421875 8.414062 -6.054688 8.125 -6.578125 C 7.832031 -7.097656 7.445312 -7.484375 6.96875 -7.734375 C 6.488281 -7.992188 5.972656 -8.125 5.421875 -8.125 C 4.859375 -8.125 4.335938 -7.992188 3.859375 -7.734375 C 3.390625 -7.484375 3.015625 -7.097656 2.734375 -6.578125 C 2.453125 -6.054688 2.3125 -5.421875 2.3125 -4.671875 C 2.3125 -3.910156 2.445312 -3.269531 2.71875 -2.75 C 3 -2.226562 3.367188 -1.835938 3.828125 -1.578125 C 4.296875 -1.328125 4.8125 -1.203125 5.375 -1.203125 Z M 5.375 -1.203125 "/></g></g></g><g fill="#01fefd" fill-opacity="1"><g transform="translate(264.018821, 287.231525)"><g><path d="M 2.859375 -7.796875 C 3.128906 -8.335938 3.515625 -8.753906 4.015625 -9.046875 C 4.523438 -9.335938 5.140625 -9.484375 5.859375 -9.484375 L 5.859375 -7.890625 L 5.453125 -7.890625 C 3.722656 -7.890625 2.859375 -6.945312 2.859375 -5.0625 L 2.859375 0 L 1.3125 0 L 1.3125 -9.3125 L 2.859375 -9.3125 Z M 2.859375 -7.796875 "/></g></g></g></svg>